<svg height="480pt" viewBox="0 -64 480.04258 480" width="480pt" xmlns="http://www.w3.org/2000/svg"><path d="m16.046875 344.019531-8.039063-48h464.03125l-8.039062 48zm0 0" fill="#78b9eb"/><path d="m256.023438 152.019531c0 8.839844-7.164063 16-16 16-8.835938 0-16-7.160156-16-16 0-8.835937 7.164062-16 16-16 8.835937 0 16 7.164063 16 16zm0 0" fill="#78b9eb"/><path d="m336.023438 152.019531c0 8.839844-7.164063 16-16 16-8.835938 0-16-7.160156-16-16 0-8.835937 7.164062-16 16-16 8.835937 0 16 7.164063 16 16zm0 0" fill="#78b9eb"/><path d="m176.023438 152.019531c0 8.839844-7.164063 16-16 16-8.835938 0-16-7.160156-16-16 0-8.835937 7.164062-16 16-16 8.835937 0 16 7.164063 16 16zm0 0" fill="#78b9eb"/><g fill="#1a6fb0"><path d="m478.101562 290.820312c-1.527343-1.765624-3.742187-2.789062-6.078124-2.800781h-33.441407c.933594-2.5625 1.417969-5.269531 1.441407-8v-256c-.039063-13.238281-10.761719-23.957031-24-23.9999998h-352c-13.238282.0429688-23.960938 10.7617188-24 23.9999998v256c.019531 2.730469.507812 5.4375 1.441406 8h-33.441406c-2.351563-.003906-4.582032 1.019531-6.109376 2.808594-1.523437 1.785156-2.1875 4.152344-1.8125 6.472656l8 48c.628907 3.882813 3.988282 6.730469 7.921876 6.71875h448c3.933593.011719 7.289062-2.835937 7.917968-6.71875l8-48c.371094-2.324219-.300781-4.695312-1.839844-6.480469zm-422.078124-266.800781c0-4.417969 3.582031-8 8-8h352c4.417968 0 8 3.582031 8 8v256c0 4.421875-3.582032 8-8 8h-352c-4.417969 0-8-3.578125-8-8zm401.199218 312h-434.398437l-5.359375-32h445.117187zm0 0"/><path d="m32.023438 312.019531h16v16h-16zm0 0"/><path d="m56.023438 312.019531h16v16h-16zm0 0"/><path d="m80.023438 312.019531h16v16h-16zm0 0"/><path d="m416.023438 312.019531h32v16h-32zm0 0"/><path d="m240.023438 128.019531c-13.253907 0-24 10.746094-24 24 0 13.257813 10.746093 24 24 24 13.253906 0 24-10.742187 24-24-.039063-13.238281-10.761719-23.957031-24-24zm0 32c-4.417969 0-8-3.578125-8-8 0-4.417969 3.582031-8 8-8 4.417968 0 8 3.582031 8 8 0 4.421875-3.582032 8-8 8zm0 0"/><path d="m320.023438 128.019531c-13.253907 0-24 10.746094-24 24 0 13.257813 10.746093 24 24 24 13.253906 0 24-10.742187 24-24-.039063-13.238281-10.761719-23.957031-24-24zm0 32c-4.417969 0-8-3.578125-8-8 0-4.417969 3.582031-8 8-8 4.417968 0 8 3.582031 8 8 0 4.421875-3.582032 8-8 8zm0 0"/><path d="m160.023438 128.019531c-13.253907 0-24 10.746094-24 24 0 13.257813 10.746093 24 24 24 13.253906 0 24-10.742187 24-24-.039063-13.238281-10.761719-23.957031-24-24zm0 32c-4.417969 0-8-3.578125-8-8 0-4.417969 3.582031-8 8-8 4.417968 0 8 3.582031 8 8 0 4.421875-3.582032 8-8 8zm0 0"/></g></svg>